#N canvas 404 27 640 570 10;
#X msg 317 222 tempo \$1;
#X msg 106 223 resolution \$1;
#X msg 209 243 reset \$1 \$2;
#X obj 209 222 pack f f;
#X floatatom 216 341 5 0 0 1 beat_time - -;
#X floatatom 179 359 5 0 0 1 phase - -;
#X floatatom 142 381 5 0 0 1 step - -;
#X floatatom 253 320 5 0 0 1 tempo - -;
#X obj 29 203 tgl 15 0 empty empty empty 17 7 0 10 -262144 -1 -1 1
1;
#X obj 142 295 abl_link~ 1 0 4 134;
#X floatatom 317 203 5 0 0 2 tempo - -;
#X floatatom 254 203 5 0 0 2 quantum - -;
#X floatatom 209 203 5 0 0 2 beat - -;
#X floatatom 106 203 5 0 0 2 resolution - -;
#X msg 29 223 connect \$1;
#X floatatom 224 416 5 0 0 0 - - -;
#X obj 224 394 r #abl_link_num_peers;
#X obj 29 147 loadbang;
#X msg 29 171 1;
#X obj 142 466 s start_note;
#X obj 142 441 bng 15 250 50 0 empty empty empty 17 7 0 10 -262144
-1 -1;
#X connect 0 0 9 0;
#X connect 1 0 9 0;
#X connect 2 0 9 0;
#X connect 3 0 2 0;
#X connect 6 0 20 0;
#X connect 8 0 14 0;
#X connect 9 0 6 0;
#X connect 9 1 5 0;
#X connect 9 2 4 0;
#X connect 9 3 7 0;
#X connect 10 0 0 0;
#X connect 11 0 3 1;
#X connect 12 0 3 0;
#X connect 13 0 1 0;
#X connect 14 0 9 0;
#X connect 16 0 15 0;
#X connect 17 0 18 0;
#X connect 18 0 8 0;
#X connect 20 0 19 0;
