#N canvas 638 278 410 459 10;
#X msg 223 190 tempo \$1;
#X msg 12 191 resolution \$1;
#X msg 115 211 reset \$1 \$2;
#X obj 115 190 pack f f;
#X floatatom 122 309 5 0 0 1 beat_time - -;
#X floatatom 85 327 5 0 0 1 phase - -;
#X floatatom 48 349 5 0 0 1 step - -;
#X floatatom 159 288 5 0 0 1 tempo - -;
#X obj 48 263 abl_link~ 1 0 4 134;
#X floatatom 223 171 5 0 0 2 tempo - -;
#X floatatom 160 171 5 0 0 2 quantum - -;
#X floatatom 115 171 5 0 0 2 beat - -;
#X floatatom 12 171 5 0 0 2 resolution - -;
#X floatatom 130 384 5 0 0 0 - - -;
#X obj 130 362 r #abl_link_num_peers;
#X obj 48 434 s start_note;
#X obj 48 409 bng 15 250 50 0 empty empty empty 17 7 0 10 -262144 -1
-1;
#X obj 223 9 r error_distance;
#X obj 223 124 clip 0 300;
#X obj 289 34 r scale_factor;
#X obj 319 60 r exp_factor;
#X obj 223 89 cyclone/scale 0 10 0 300 0.5;
#X connect 0 0 8 0;
#X connect 1 0 8 0;
#X connect 2 0 8 0;
#X connect 3 0 2 0;
#X connect 6 0 16 0;
#X connect 8 0 6 0;
#X connect 8 1 5 0;
#X connect 8 2 4 0;
#X connect 8 3 7 0;
#X connect 9 0 0 0;
#X connect 10 0 3 1;
#X connect 11 0 3 0;
#X connect 12 0 1 0;
#X connect 14 0 13 0;
#X connect 16 0 15 0;
#X connect 17 0 21 0;
#X connect 18 0 9 0;
#X connect 19 0 21 2;
#X connect 20 0 21 5;
#X connect 21 0 18 0;
