#N canvas 610 169 1011 440 10;
#X floatatom 368 211 5 0 0 0 - - -;
#X obj 368 73 vsl 15 128 0 1000 0 0 empty empty empty 0 -9 0 10 -262144
-1 -1 635 1;
#X floatatom 516 213 5 0 0 0 - - -;
#X obj 516 76 vsl 15 128 0 1000 0 0 empty empty empty 0 -9 0 10 -262144
-1 -1 889 1;
#X floatatom 791 213 5 0 0 0 - - -;
#X obj 791 76 vsl 15 128 0 1000 0 0 empty empty empty 0 -9 0 10 -262144
-1 -1 1270 1;
#X floatatom 926 212 5 0 0 0 - - -;
#X obj 926 74 vsl 15 128 0 1000 0 0 empty empty empty 0 -9 0 10 -262144
-1 -1 1270 1;
#X msg 925 50 100;
#X text 365 27 Attack;
#X text 512 26 Decay;
#X text 789 26 Sustain;
#X text 921 26 Release;
#X obj 310 50 loadbang;
#X obj 457 50 loadbang;
#X obj 731 49 loadbang;
#X obj 870 49 loadbang;
#X obj 219 75 vsl 15 128 0 200 0 0 empty empty empty 0 -9 0 10 -262144
-1 -1 0 1;
#X obj 161 52 loadbang;
#X obj 368 261 s attack;
#X obj 516 257 s decay;
#X floatatom 219 235 5 0 0 0 - - -;
#X obj 219 261 s peak_level;
#X obj 219 212 / 100;
#X text 216 29 Peak level;
#X obj 590 322 *;
#X obj 638 301 t b f;
#X obj 638 73 vsl 15 128 0 100 0 0 empty empty empty 0 -9 0 10 -262144
-1 -1 8890 1;
#X obj 580 50 loadbang;
#X floatatom 638 233 5 0 0 0 - - -;
#X obj 638 210 / 100;
#X text 635 27 Sustain level;
#X msg 638 50 70;
#X obj 791 260 s sustain;
#X obj 926 261 s release;
#X obj 590 345 s sustain_level;
#X text 625 323 Percentage of peak level;
#X msg 368 50 50;
#X msg 516 50 70;
#X msg 791 50 100;
#X obj 7 52 r error_distance;
#X msg 219 52 0;
#X obj 7 160 clip 0 100;
#X obj 75 75 r scale_factor;
#X obj 108 98 r exp_factor;
#X obj 7 125 cyclone/scale 0 255 0 100 0.5;
#X connect 0 0 19 0;
#X connect 1 0 0 0;
#X connect 2 0 20 0;
#X connect 3 0 2 0;
#X connect 4 0 33 0;
#X connect 5 0 4 0;
#X connect 6 0 34 0;
#X connect 7 0 6 0;
#X connect 8 0 7 0;
#X connect 13 0 37 0;
#X connect 14 0 38 0;
#X connect 15 0 39 0;
#X connect 16 0 8 0;
#X connect 17 0 23 0;
#X connect 18 0 41 0;
#X connect 21 0 22 0;
#X connect 21 0 25 0;
#X connect 23 0 21 0;
#X connect 25 0 35 0;
#X connect 26 0 25 0;
#X connect 26 1 25 1;
#X connect 27 0 30 0;
#X connect 28 0 32 0;
#X connect 29 0 26 0;
#X connect 30 0 29 0;
#X connect 32 0 27 0;
#X connect 37 0 1 0;
#X connect 38 0 3 0;
#X connect 39 0 5 0;
#X connect 40 0 45 0;
#X connect 41 0 17 0;
#X connect 42 0 17 0;
#X connect 43 0 45 2;
#X connect 44 0 45 5;
#X connect 45 0 42 0;
