#N canvas 53 23 915 386 10;
#X floatatom 241 211 5 0 0 0 - - -;
#X obj 241 73 vsl 15 128 0 1000 0 0 empty empty empty 0 -9 0 10 -262144
-1 -1 3810 1;
#X floatatom 389 213 5 0 0 0 - - -;
#X obj 389 76 vsl 15 128 0 1000 0 0 empty empty empty 0 -9 0 10 -262144
-1 -1 1270 1;
#X floatatom 664 213 5 0 0 0 - - -;
#X obj 664 76 vsl 15 128 0 1000 0 0 empty empty empty 0 -9 0 10 -262144
-1 -1 1905 1;
#X floatatom 799 212 5 0 0 0 - - -;
#X obj 799 74 vsl 15 128 0 1000 0 0 empty empty empty 0 -9 0 10 -262144
-1 -1 1270 1;
#X msg 241 50 300;
#X msg 389 50 100;
#X msg 664 50 150;
#X msg 798 50 100;
#X text 238 27 Attack;
#X text 385 26 Decay;
#X text 662 26 Sustain;
#X text 794 26 Release;
#X obj 183 50 loadbang;
#X obj 330 50 loadbang;
#X obj 604 49 loadbang;
#X obj 743 49 loadbang;
#X obj 92 75 vsl 15 128 0 200 0 0 empty empty empty 0 -9 0 10 -262144
-1 -1 6350 1;
#X obj 34 52 loadbang;
#X obj 241 261 s attack;
#X obj 389 257 s decay;
#X floatatom 92 235 5 0 0 0 - - -;
#X obj 92 261 s peak_level;
#X obj 92 212 / 100;
#X msg 92 52 100;
#X text 89 29 Peak level;
#X obj 463 322 *;
#X obj 511 301 t b f;
#X obj 511 73 vsl 15 128 0 100 0 0 empty empty empty 0 -9 0 10 -262144
-1 -1 8890 1;
#X obj 453 50 loadbang;
#X floatatom 511 233 5 0 0 0 - - -;
#X obj 511 210 / 100;
#X text 508 27 Sustain level;
#X msg 511 50 70;
#X obj 664 260 s sustain;
#X obj 799 261 s release;
#X obj 463 345 s sustain_level;
#X text 498 323 Percentage of peak level;
#X connect 0 0 22 0;
#X connect 1 0 0 0;
#X connect 2 0 23 0;
#X connect 3 0 2 0;
#X connect 4 0 37 0;
#X connect 5 0 4 0;
#X connect 6 0 38 0;
#X connect 7 0 6 0;
#X connect 8 0 1 0;
#X connect 9 0 3 0;
#X connect 10 0 5 0;
#X connect 11 0 7 0;
#X connect 16 0 8 0;
#X connect 17 0 9 0;
#X connect 18 0 10 0;
#X connect 19 0 11 0;
#X connect 20 0 26 0;
#X connect 21 0 27 0;
#X connect 24 0 25 0;
#X connect 24 0 29 0;
#X connect 26 0 24 0;
#X connect 27 0 20 0;
#X connect 29 0 39 0;
#X connect 30 0 29 0;
#X connect 30 1 29 1;
#X connect 31 0 34 0;
#X connect 32 0 36 0;
#X connect 33 0 30 0;
#X connect 34 0 33 0;
#X connect 36 0 31 0;
