#N canvas 649 102 1120 815 10;
#X obj 371 709 *~;
#X floatatom 552 373 5 0 0 0 - - -;
#X floatatom 502 328 5 0 0 0 - - -;
#X obj 552 343 r attack;
#X obj 633 421 r decay;
#X obj 502 305 r peak_level;
#X obj 301 177 r start_note;
#X floatatom 18 454 3 0 0 0 - - -;
#X obj 165 428 osc~ 432;
#X obj 263 428 phasor~ 432;
#X obj 372 428 noise~;
#X floatatom 165 399 5 0 0 0 - - -;
#X msg 165 373 432;
#X msg 206 372 864;
#X floatatom 263 398 5 0 0 0 - - -;
#X msg 263 372 432;
#X msg 304 371 864;
#X obj 542 625 vline~;
#X msg 542 590 \$2 \$3 \, \$4 \$5 \$3 \, 0 \$6 \$7;
#X obj 301 201 bng 15 250 50 0 empty empty empty 17 7 0 10 -262144
-1 -1;
#X obj 604 373 r sustain_level;
#X floatatom 604 399 5 0 0 0 - - -;
#X floatatom 633 444 5 0 0 0 - - -;
#X obj 542 562 pack f f f f f f f;
#X obj 948 451 t b f;
#X obj 818 443 r sustain;
#X floatatom 818 468 5 0 0 0 - - -;
#X floatatom 657 504 5 0 0 0 - - -;
#X obj 657 472 r release;
#X obj 900 512 t b f;
#X obj 900 472 +;
#X obj 900 378 r attack;
#X obj 948 399 r decay;
#X floatatom 900 407 5 0 0 0 - - -;
#X floatatom 948 427 5 0 0 0 - - -;
#X floatatom 818 560 5 0 0 0 - - -;
#X obj 818 533 +;
#X msg 762 629 1 300 \, 0.7 100 300 \, 0 100 550;
#X obj 371 775 outlet~;
#X obj 18 428 r select_sound_type;
#X obj 124 508 selector~ 3;
#X obj 513 51 _ADSR_generator_loadbang_settings;
#X text 393 172 The message [s start_note] is sent by the abl_link_control_patch
;
#X connect 0 0 38 0;
#X connect 1 0 23 2;
#X connect 2 0 23 1;
#X connect 3 0 1 0;
#X connect 4 0 22 0;
#X connect 5 0 2 0;
#X connect 6 0 19 0;
#X connect 7 0 40 0;
#X connect 8 0 40 1;
#X connect 9 0 40 2;
#X connect 10 0 40 3;
#X connect 11 0 8 0;
#X connect 12 0 11 0;
#X connect 13 0 11 0;
#X connect 14 0 9 0;
#X connect 15 0 14 0;
#X connect 16 0 14 0;
#X connect 17 0 0 1;
#X connect 18 0 17 0;
#X connect 19 0 23 0;
#X connect 20 0 21 0;
#X connect 21 0 23 3;
#X connect 22 0 23 4;
#X connect 23 0 18 0;
#X connect 24 0 30 0;
#X connect 24 1 30 1;
#X connect 25 0 26 0;
#X connect 26 0 36 0;
#X connect 27 0 23 5;
#X connect 28 0 27 0;
#X connect 29 0 36 0;
#X connect 29 1 36 1;
#X connect 30 0 29 0;
#X connect 31 0 33 0;
#X connect 32 0 34 0;
#X connect 33 0 30 0;
#X connect 34 0 24 0;
#X connect 36 0 23 6;
#X connect 36 0 35 0;
#X connect 37 0 17 0;
#X connect 39 0 7 0;
#X connect 40 0 0 0;
