#N canvas 368 271 726 444 10;
#X obj 451 148 outlet~;
#X obj 212 15 inlet~;
#X obj 26 98 switch~;
#X obj 26 72 tgl 15 0 empty empty empty 17 7 0 10 -262144 -1 -1 0 1
;
#X obj 26 18 inlet;
#X text 2 118 Enable/disable DSP in this patch;
#X text 461 68 delay time in ms;
#X obj 451 11 inlet;
#X text 268 13 input signal;
#X obj 212 44 delwrite~ \$0-buffer_delay 2000;
#X obj 451 96 delread~ \$0-buffer_delay 500;
#X connect 1 0 9 0;
#X connect 3 0 2 0;
#X connect 4 0 3 0;
#X connect 7 0 10 0;
#X connect 10 0 0 0;
