#N canvas 123 23 450 300 10;
#X obj 306 25 inlet~;
#X obj 306 181 outlet~;
#X obj 16 103 switch~;
#X obj 16 77 tgl 15 0 empty empty empty 17 7 0 10 -262144 -1 -1 0 1
;
#X obj 16 23 inlet;
#X text 54 27 Enable/disable DSP in this patch;
#X connect 0 0 1 0;
#X connect 3 0 2 0;
#X connect 4 0 3 0;
