#N canvas 357 58 943 680 10;
#X msg 24 403 close;
#X obj 7 14 cnv 15 440 60 empty empty empty 20 12 0 14 -200075 -66577
0;
#X msg 13 371 devices;
#X msg 73 403 open \$1;
#X text 15 22 [serial_print]: abstraction that works with Arduinos'
Serial.print() and Serial.println() functions (with the use of [comport])
;
#X text 510 83 Inlets:;
#X text 550 100 1st: bytes from [comport];
#X text 510 166 Outlets:;
#X obj 13 615 s;
#X text 511 26 Arguments: delimiter type (tab \, space \, comma \,
any). You can provide up to two arguments (cause three arguments is
the same as "any"). if no argument is provided \, then all three symbols
will work as delimiters;
#X text 550 115 2nd: change delimiter type with a symbol (as with the
arguments \, you can use two delimiters separated by a space \, e.g.
"tab comma");
#X text 10 78 [serial_print] is a vanilla abstraction that works with
[comport] and Arduino's Serial.print() and Serial.println() functions.
;
#X text 10 237 This help patch works with the serial_print.ino sketch.
Check it for more information.;
#X text 554 184 1st: list of values of a group.;
#X text 553 205 2nd: string to be used as a tag for a value group (print
this first from the Arduino so that it works \, otherwise you'll probably
get strange results). This comes out first \, then the value list out
the left outlet;
#X text 10 121 You can use commas \, spaces or tabs in between values
to separate them. You can choose your delimiter via an argument (tab
\, space \, comma or any \, or no argument which is the same as any).
A string must precede a value group \, which will be used as a tag
\, sent to the right inlet of [send] \, and used as an argument to
the corresponding [receive]. The last value of each group must be printed
with Serial.println() \, in order for [serial_print] to know a value
group has ended.;
#X obj 13 593 serial_print any;
#X text 11 278 Note: the digital pins are using the internal pull-up
resistors \, using INPUT_PULLUP \, so you don't need to use resistors
for switches. For this reason the readings of the digital pins are
inverted so you get a 0 when you press a switch and a 1 when you release
it.;
#X obj 960 21 cnv 15 320 250 empty empty empty 20 12 0 14 -262130 -66577
0;
#X obj 1013 105 unpack s f;
#X floatatom 1070 202 8 0 0 0 - - -;
#X text 990 36 Data from analog sensors;
#X obj 672 343 cnv 15 250 220 empty empty empty 20 12 0 14 -228856
-66577 0;
#X floatatom 689 492 5 0 0 0 - - -;
#X obj 689 515 s resolution;
#X msg 689 432 4095;
#X msg 714 460 1023;
#X obj 689 399 loadbang;
#X text 753 459 10-bit Arduino resolution;
#X text 752 434 12-bit Teensy resolution;
#X text 688 364 Configuration;
#X msg 297 420 devicename /dev/ttyACM0;
#X obj 297 390 loadbang;
#X text 210 361 Note: for the Pi the port is different than the laptop
;
#X msg 176 350 0;
#X obj 13 569 comport 0 115200;
#X obj 133 502 r to_microcontroller;
#X obj 961 317 cnv 15 850 500 empty empty empty 20 12 0 14 -204786
-66577 0;
#X obj 1001 751 _format_serial_messages;
#X text 1238 336 These messages control the microcontroller \; they
are sent from the connected laptop \, received in form of OSC messages
and then routed here.;
#X floatatom 1182 647 5 0 0 0 - - -;
#X obj 1001 779 s to_microcontroller;
#X floatatom 1363 647 5 0 0 0 - - -;
#X floatatom 1544 647 5 0 0 0 - - -;
#X floatatom 1001 647 5 0 0 0 - - -;
#X msg 176 375 6;
#X obj 1013 77 r a0;
#X obj 1131 88 r resolution;
#X obj 1070 140 cyclone/scale 0 4095 0 1 1;
#X floatatom 1131 114 5 0 0 0 - - -;
#X obj 1251 516 r south;
#X obj 1432 516 r east;
#X obj 1613 516 r west;
#X obj 1070 516 r north;
#X obj 1001 341 r feedback;
#X obj 1001 443 tgl 15 0 empty empty empty 17 7 0 10 -262144 -1 -1
0 1;
#X obj 1001 621 cyclone/gate;
#X obj 1182 621 cyclone/gate;
#X obj 1363 621 cyclone/gate;
#X obj 1544 621 cyclone/gate;
#X text 1187 767 The Arduino sketch handles messages for the motors
with numbers between 0 and 500 that correspond to the vibration intensity
;
#X obj 1001 366 == 2;
#X obj 1039 366 == 3;
#X obj 1001 417 ||;
#X floatatom 1025 442 5 0 0 0 - - -;
#X obj 1039 392 t b f;
#X obj 1001 392 f;
#X obj 1070 233 s pressure;
#X msg 1001 668 motor_up_pattern \$1;
#X msg 1182 668 motor_down_pattern \$1;
#X msg 1363 668 motor_right_pattern \$1;
#X msg 1544 668 motor_left_pattern \$1;
#X obj 1070 587 clip 0 250;
#X obj 1251 587 clip 0 250;
#X obj 1432 587 clip 0 250;
#X obj 1613 588 clip 0 250;
#X obj 1138 392 r scale_factor;
#X obj 1241 392 r exp_factor;
#X obj 1070 552 cyclone/scale 0 255 0 250 0.5;
#X obj 1251 552 cyclone/scale 0 255 0 250 0.5;
#X obj 1432 552 cyclone/scale 0 255 0 250 0.5;
#X obj 1613 552 cyclone/scale 0 255 0 250 0.5;
#X obj 1070 170 clip 0 1;
#X connect 0 0 35 0;
#X connect 2 0 35 0;
#X connect 3 0 35 0;
#X connect 16 0 8 0;
#X connect 16 1 8 1;
#X connect 19 1 48 0;
#X connect 20 0 67 0;
#X connect 23 0 24 0;
#X connect 25 0 23 0;
#X connect 26 0 23 0;
#X connect 27 0 25 0;
#X connect 32 0 31 0;
#X connect 32 0 34 0;
#X connect 34 0 3 0;
#X connect 35 0 16 0;
#X connect 36 0 35 0;
#X connect 38 0 41 0;
#X connect 40 0 69 0;
#X connect 42 0 70 0;
#X connect 43 0 71 0;
#X connect 44 0 68 0;
#X connect 45 0 3 0;
#X connect 46 0 19 0;
#X connect 47 0 49 0;
#X connect 48 0 82 0;
#X connect 49 0 48 2;
#X connect 50 0 79 0;
#X connect 51 0 80 0;
#X connect 52 0 81 0;
#X connect 53 0 78 0;
#X connect 54 0 61 0;
#X connect 54 0 62 0;
#X connect 55 0 56 0;
#X connect 55 0 57 0;
#X connect 55 0 58 0;
#X connect 55 0 59 0;
#X connect 56 0 44 0;
#X connect 57 0 40 0;
#X connect 58 0 42 0;
#X connect 59 0 43 0;
#X connect 61 0 66 0;
#X connect 62 0 65 0;
#X connect 63 0 55 0;
#X connect 63 0 64 0;
#X connect 65 0 66 0;
#X connect 65 1 63 1;
#X connect 66 0 63 0;
#X connect 68 0 38 0;
#X connect 69 0 38 0;
#X connect 70 0 38 0;
#X connect 71 0 38 0;
#X connect 72 0 56 1;
#X connect 73 0 57 1;
#X connect 74 0 58 1;
#X connect 75 0 59 1;
#X connect 76 0 78 2;
#X connect 76 0 79 2;
#X connect 76 0 80 2;
#X connect 76 0 81 2;
#X connect 77 0 78 5;
#X connect 77 0 79 5;
#X connect 77 0 80 5;
#X connect 77 0 81 5;
#X connect 78 0 72 0;
#X connect 79 0 73 0;
#X connect 80 0 74 0;
#X connect 81 0 75 0;
#X connect 82 0 20 0;
