#N canvas -11 -11 1920 1016 10;
#X obj 520 307 textfile;
#X msg 724 277 clear;
#X obj 520 131 time;
#X msg 724 136 write;
#X obj 724 108 r end_path;
#X obj 520 178 pack f f f f f;
#X obj 571 131 t b f;
#X floatatom 571 105 5 0 0 0 - - -;
#X msg 520 223 add \$1:\$2:\$3:\$4 \$5;
#X obj 58 307 textfile;
#X msg 262 277 clear;
#X obj 58 131 time;
#X msg 262 136 write;
#X obj 262 108 r end_path;
#X obj 58 178 pack f f f f f;
#X obj 109 131 t b f;
#X floatatom 109 105 5 0 0 0 - - -;
#X msg 58 256 add \$1:\$2:\$3:\$4 \$5;
#X obj 58 223 cyclone/gate;
#X obj 161 201 tgl 15 0 empty empty empty 17 7 0 10 -262144 -1 -1 1
1;
#X msg 161 178 1;
#X msg 205 178 0;
#X text 55 40 Log the pressure read by the sensor;
#X text 517 40 Log the error computed from the data received by the
headset;
#X obj 571 76 r error_distance;
#X obj 109 76 r pressure;
#X obj 724 178 pack s s;
#X obj 794 108 r experiment_name;
#X msg 724 223 \$1 logs/error_\$2.txt;
#X msg 262 223 \$1 logs/pressure_\$2.txt;
#X obj 262 178 pack s s;
#X obj 332 108 r experiment_name;
#X obj 794 136 symbol;
#X obj 298 251 r clearall;
#X obj 760 251 r clearall;
#X connect 1 0 0 0;
#X connect 2 0 5 0;
#X connect 2 1 5 1;
#X connect 2 2 5 2;
#X connect 2 3 5 3;
#X connect 3 0 26 0;
#X connect 4 0 3 0;
#X connect 5 0 8 0;
#X connect 6 0 2 0;
#X connect 6 1 5 4;
#X connect 7 0 6 0;
#X connect 8 0 0 0;
#X connect 10 0 9 0;
#X connect 11 0 14 0;
#X connect 11 1 14 1;
#X connect 11 2 14 2;
#X connect 11 3 14 3;
#X connect 12 0 30 0;
#X connect 13 0 12 0;
#X connect 13 0 21 0;
#X connect 14 0 18 1;
#X connect 15 0 11 0;
#X connect 15 1 14 4;
#X connect 16 0 15 0;
#X connect 17 0 9 0;
#X connect 18 0 17 0;
#X connect 19 0 18 0;
#X connect 20 0 19 0;
#X connect 21 0 19 0;
#X connect 24 0 7 0;
#X connect 25 0 16 0;
#X connect 26 0 28 0;
#X connect 27 0 32 0;
#X connect 28 0 0 0;
#X connect 28 0 1 0;
#X connect 29 0 9 0;
#X connect 29 0 10 0;
#X connect 30 0 29 0;
#X connect 31 0 20 0;
#X connect 31 0 30 1;
#X connect 32 0 26 1;
#X connect 33 0 10 0;
#X connect 33 0 21 0;
#X connect 34 0 1 0;
