#N canvas 688 23 906 574 12;
#X obj 539 335 line~;
#X obj 539 268 pack f f f;
#X msg 539 304 \$1 \, \$2 \$3;
#X floatatom 562 231 5 0 0 0 - - -;
#X floatatom 613 231 5 0 0 0 - - -;
#X floatatom 664 231 5 0 0 0 - - -;
#X obj 664 124 / 2;
#X obj 539 154 tgl 15 0 empty empty empty 0 -6 0 8 -44926 -1 -1 1 1
;
#X obj 664 100 nbx 5 14 -1e+37 1e+37 0 0 empty empty empty 0 -6 0 10
-241291 -1 -1 500 256;
#X obj 298 163 delwrite~ \$0-reverse 5000;
#X obj 539 382 vd~ \$0-reverse;
#X obj 539 437 outlet~;
#X obj 298 8 inlet~;
#X obj 31 197 switch~;
#X obj 31 61 tgl 15 0 empty empty empty 17 7 0 10 -262144 -1 -1 1 1
;
#X obj 31 7 inlet;
#X text 7 217 Enable/disable DSP in this patch;
#X obj 539 183 metro 500;
#X msg 664 59 2000;
#X msg 716 59 1000;
#X msg 770 60 500;
#X msg 821 62 100;
#X obj 771 21 loadbang;
#X connect 0 0 10 0;
#X connect 1 0 2 0;
#X connect 2 0 0 0;
#X connect 3 0 1 0;
#X connect 4 0 1 1;
#X connect 5 0 1 2;
#X connect 6 0 5 0;
#X connect 6 0 17 1;
#X connect 7 0 17 0;
#X connect 8 0 6 0;
#X connect 8 0 4 0;
#X connect 10 0 11 0;
#X connect 12 0 9 0;
#X connect 14 0 13 0;
#X connect 14 0 7 0;
#X connect 15 0 14 0;
#X connect 17 0 1 0;
#X connect 18 0 8 0;
#X connect 19 0 8 0;
#X connect 20 0 8 0;
#X connect 21 0 8 0;
#X connect 22 0 20 0;
