#N canvas 424 186 573 509 10;
#X obj 16 223 _ADSR_generator;
#X obj 16 26 r north;
#X obj 69 26 r south;
#X obj 122 26 r east;
#X obj 170 26 r west;
#X floatatom 132 152 5 0 0 0 - - -;
#X obj 16 94 expr sqrt( pow($f1 \, 2) + pow($f2 \, 2) + pow($f3 \,
2) + pow($f4 \, 2) );
#X obj 69 58 t b f;
#X obj 16 59 f;
#X obj 170 57 t b f;
#X obj 122 58 t b f;
#X text 225 21 Cartesian distance NB: North-South and East-West values
should not be set at the same time;
#X obj 16 151 s error_distance;
#X obj 71 373 vline~;
#X obj 16 408 *~;
#X floatatom 71 324 5 0 0 0 - - -;
#X obj 71 268 loadbang;
#X msg 71 295 1;
#X obj 16 478 throw~ ch1;
#X obj 136 478 throw~ ch2;
#X msg 71 349 \$1 2000;
#X connect 0 0 14 0;
#X connect 1 0 8 0;
#X connect 2 0 7 0;
#X connect 3 0 10 0;
#X connect 4 0 9 0;
#X connect 6 0 5 0;
#X connect 6 0 12 0;
#X connect 7 0 8 0;
#X connect 7 1 6 1;
#X connect 8 0 6 0;
#X connect 9 0 8 0;
#X connect 9 1 6 3;
#X connect 10 0 8 0;
#X connect 10 1 6 2;
#X connect 13 0 14 1;
#X connect 14 0 18 0;
#X connect 14 0 19 0;
#X connect 15 0 20 0;
#X connect 16 0 17 0;
#X connect 17 0 15 0;
#X connect 20 0 13 0;
