#N canvas 1062 24 442 707 10;
#X msg 93 272 \$1 20;
#X obj 93 296 vline~;
#X obj 38 331 *~;
#X floatatom 93 247 5 0 0 0 - - -, f 5;
#X obj 93 191 loadbang;
#X msg 93 218 1;
#X obj 133 46 receive~ input_signal;
#X obj 38 80 tgl 15 0 empty empty empty 17 7 0 10 -262144 -1 -1 0 1
;
#X obj 38 44 inlet;
#X obj 38 401 throw~ ch1;
#X obj 158 401 throw~ ch2;
#X obj 38 135 _direct_signal;
#X connect 0 0 1 0;
#X connect 1 0 2 1;
#X connect 2 0 9 0;
#X connect 2 0 10 0;
#X connect 3 0 0 0;
#X connect 4 0 5 0;
#X connect 5 0 3 0;
#X connect 6 0 11 1;
#X connect 7 0 11 0;
#X connect 8 0 7 0;
#X connect 11 0 2 0;
