#N canvas 579 27 830 677 10;
#X floatatom 278 325 5 0 0 0 - - -;
#X msg 92 506 \$1 20;
#X obj 92 530 vline~;
#X obj 37 565 *~;
#X floatatom 92 481 5 0 0 0 - - -;
#X obj 92 425 loadbang;
#X obj 278 277 loadbang;
#X obj 84 277 receive~ input_signal;
#X obj 37 314 tgl 15 0 empty empty empty 17 7 0 10 -262144 -1 -1 1
1;
#X obj 37 278 inlet;
#X obj 37 635 throw~ ch1;
#X obj 157 635 throw~ ch2;
#X msg 278 302 5;
#X text 278 340 pitch shift amount (halftones);
#X msg 321 302 0;
#X msg 419 301 12;
#X msg 458 301 -12;
#X msg 368 302 -5;
#X obj 37 369 _pitch_shifter;
#X obj 610 129 hsl 128 15 0.1 10 1 0 empty empty empty -2 -8 0 10 -228856
-1 -1 0 1;
#X text 605 108 exponential factor;
#X obj 607 155 nbx 8 14 -1e+37 1e+37 0 0 empty empty empty 0 -8 0 10
-228856 -1 -1 0 256;
#X text 302 143 The value from the sensor;
#X text 331 190 the mapping function;
#X obj 466 188 cyclone/scale 0 1 0 12 1;
#X obj 466 145 r _a1;
#X msg 92 452 1;
#X connect 0 0 18 2;
#X connect 1 0 2 0;
#X connect 2 0 3 1;
#X connect 3 0 10 0;
#X connect 3 0 11 0;
#X connect 4 0 1 0;
#X connect 5 0 26 0;
#X connect 6 0 12 0;
#X connect 7 0 18 1;
#X connect 8 0 18 0;
#X connect 9 0 8 0;
#X connect 12 0 0 0;
#X connect 14 0 0 0;
#X connect 15 0 0 0;
#X connect 16 0 0 0;
#X connect 17 0 0 0;
#X connect 18 0 3 0;
#X connect 19 0 21 0;
#X connect 21 0 24 5;
#X connect 24 0 0 0;
#X connect 25 0 24 0;
#X connect 26 0 4 0;
