#N canvas 375 64 994 661 10;
#X floatatom 276 303 5 0 0 0 - - -;
#X msg 90 464 \$1 20;
#X obj 90 488 vline~;
#X obj 35 523 *~;
#X floatatom 90 439 5 0 0 0 - - -;
#X obj 90 383 loadbang;
#X msg 90 410 1;
#X obj 276 240 loadbang;
#X obj 87 236 receive~ input_signal;
#X obj 35 272 tgl 15 0 empty empty empty 17 7 0 10 -262144 -1 -1 0
1;
#X obj 35 236 inlet;
#X obj 35 593 throw~ ch1;
#X obj 155 593 throw~ ch2;
#X text 183 328 frequency shifting amlount (Hz);
#X obj 35 327 _frequency_shifter;
#X msg 276 266 200;
#X msg 316 266 0;
#X msg 356 266 -200;
#X msg 546 266 -900;
#X msg 495 266 900;
#X msg 402 266 100;
#X msg 442 266 -100;
#X obj 652 99 hsl 128 15 0.1 10 1 0 empty empty empty -2 -8 0 10 -228856
-1 -1 0 1;
#X text 647 78 exponential factor;
#X obj 649 125 nbx 8 14 -1e+37 1e+37 0 0 empty empty empty 0 -8 0 10
-228856 -1 -1 0 256;
#X text 326 113 The value from the sensor;
#X text 355 160 the mapping function;
#X obj 490 115 r _a1;
#X obj 490 158 cyclone/scale 0 1 0 1000 1;
#X connect 0 0 14 2;
#X connect 1 0 2 0;
#X connect 2 0 3 1;
#X connect 3 0 11 0;
#X connect 3 0 12 0;
#X connect 4 0 1 0;
#X connect 5 0 6 0;
#X connect 6 0 4 0;
#X connect 7 0 15 0;
#X connect 8 0 14 1;
#X connect 9 0 14 0;
#X connect 10 0 9 0;
#X connect 14 0 3 0;
#X connect 15 0 0 0;
#X connect 16 0 0 0;
#X connect 17 0 0 0;
#X connect 18 0 0 0;
#X connect 19 0 0 0;
#X connect 20 0 0 0;
#X connect 21 0 0 0;
#X connect 22 0 24 0;
#X connect 24 0 28 5;
#X connect 27 0 28 0;
#X connect 28 0 0 0;
