#N canvas 605 23 792 561 10;
#X msg 93 272 \$1 20;
#X obj 93 296 vline~;
#X obj 38 331 *~;
#X floatatom 93 247 5 0 0 0 - - -;
#X obj 93 191 loadbang;
#X msg 93 218 1;
#X obj 101 44 receive~ input_signal;
#X obj 38 80 tgl 15 0 empty empty empty 17 7 0 10 -262144 -1 -1 1 1
;
#X obj 38 44 inlet;
#X obj 38 401 throw~ ch1;
#X obj 158 401 throw~ ch2;
#X obj 38 135 _reverse;
#X obj 628 99 hsl 128 15 0.1 10 1 0 empty empty empty -2 -8 0 10 -228856
-1 -1 0 1;
#X text 623 78 exponential factor;
#X obj 625 125 nbx 8 14 -1e+37 1e+37 0 0 empty empty empty 0 -8 0 10
-228856 -1 -1 0 256;
#X text 326 113 The value from the sensor;
#X text 355 160 the mapping function;
#X obj 490 158 cyclone/scale 0 1 0 4 1;
#X obj 490 115 r _a2;
#X connect 0 0 1 0;
#X connect 1 0 2 1;
#X connect 2 0 9 0;
#X connect 2 0 10 0;
#X connect 3 0 0 0;
#X connect 4 0 5 0;
#X connect 5 0 3 0;
#X connect 6 0 11 1;
#X connect 7 0 11 0;
#X connect 8 0 7 0;
#X connect 11 0 2 0;
#X connect 12 0 14 0;
#X connect 14 0 17 5;
#X connect 17 0 3 0;
#X connect 18 0 17 0;
