#N canvas 530 23 969 788 10;
#X msg 75 479 \$1 20;
#X obj 75 503 vline~;
#X obj 20 538 *~;
#X floatatom 75 454 5 0 0 0 - - -;
#X obj 75 398 loadbang;
#X msg 75 425 1;
#X obj 20 179 tgl 15 0 empty empty empty 17 7 0 10 -262144 -1 -1 1
1;
#X floatatom 111 285 5 0 0 0 - - -;
#X floatatom 273 286 5 0 1 0 - - -;
#X text 273 303 feedback amount;
#X text 115 301 Delay time (ms);
#X obj 63 19 receive~ input_signal;
#X obj 111 222 loadbang;
#X floatatom 273 241 5 0 99 0 - - -;
#X obj 273 185 loadbang;
#X obj 273 263 / 100;
#X msg 111 248 150;
#X msg 273 212 30;
#X obj 20 110 inlet;
#X obj 20 608 throw~ ch1;
#X obj 112 608 throw~ ch2;
#X obj 20 342 _delay_feedback;
#X obj 656 72 hsl 128 15 0.1 10 1 0 empty empty empty -2 -8 0 10 -228856
-1 -1 0 1;
#X text 651 51 exponential factor;
#X obj 653 98 nbx 8 14 -1e+37 1e+37 0 0 empty empty empty 0 -8 0 10
-228856 -1 -1 0 256;
#X text 324 86 The value from the sensor;
#X text 353 133 the mapping function;
#X obj 488 88 r _a0;
#X obj 488 131 cyclone/scale 0 1 0.1 0.95 1;
#X connect 0 0 1 0;
#X connect 1 0 2 1;
#X connect 2 0 19 0;
#X connect 2 0 20 0;
#X connect 3 0 0 0;
#X connect 4 0 5 0;
#X connect 5 0 3 0;
#X connect 6 0 21 0;
#X connect 7 0 21 2;
#X connect 8 0 21 3;
#X connect 11 0 21 1;
#X connect 12 0 16 0;
#X connect 13 0 15 0;
#X connect 14 0 17 0;
#X connect 15 0 8 0;
#X connect 16 0 7 0;
#X connect 17 0 13 0;
#X connect 18 0 6 0;
#X connect 21 0 2 0;
#X connect 22 0 24 0;
#X connect 24 0 28 5;
#X connect 27 0 28 0;
#X connect 28 0 8 0;
