#N canvas 629 166 805 604 10;
#X obj 18 16 loadbang;
#X obj 18 43 delay 1000;
#X msg 18 146 \; pd dsp \$1;
#X obj 18 74 tgl 30 0 empty empty empty 17 7 0 10 -162280 -1 -1 1 1
;
#X obj 27 126 s global_volume_fade;
#X text 58 79 <-Click to start/stop DSP;
#X obj 451 133 _sound_engine;
#X obj 21 374 catch~ ch1;
#X obj 66 400 catch~ ch2;
#X obj 21 528 *~;
#X obj 21 560 dac~ 1 2;
#X obj 146 490 line~;
#X obj 146 462 pack 0 500;
#X obj 146 433 r global_volume_fade;
#X obj 66 528 *~;
#X obj 451 98 _osc_control;
#X obj 451 166 _abl_link_control;
#X obj 451 52 _exchange_data_with_microcontroller;
#X connect 0 0 1 0;
#X connect 1 0 3 0;
#X connect 3 0 2 0;
#X connect 3 0 4 0;
#X connect 7 0 9 0;
#X connect 8 0 14 0;
#X connect 9 0 10 0;
#X connect 11 0 9 1;
#X connect 11 0 14 1;
#X connect 12 0 11 0;
#X connect 13 0 12 0;
#X connect 14 0 10 1;
