#N canvas 455 386 822 525 10;
#X obj 3 5 cnv 15 400 500 empty empty empty 20 12 0 14 -204786 -66577
0;
#X obj 11 97 unpackOSC;
#X obj 11 250 osc~ 432;
#X obj 11 338 dac~ 1 2;
#X floatatom 118 200 5 0 0 0 - - -;
#X text 10 11 OSC Server;
#X obj 408 5 cnv 15 400 500 empty empty empty 20 12 0 14 -261682 -66577
0;
#X text 412 14 OSC Client;
#X msg 9 442 \; pd dsp 1 \;;
#X msg 88 442 \; pd dsp 0 \;;
#X obj 9 400 loadbang;
#X msg 580 280 disconnect;
#X obj 416 208 packOSC;
#X floatatom 416 100 5 0 0 0 - - -;
#X obj 416 457 tgl 15 0 empty empty 1=connected 20 8 0 8 -262144 -1
-1 1 1;
#X obj 579 231 loadbang;
#X text 14 422 Turn DSP on and off;
#X floatatom 636 80 5 0 0 0 - - -;
#X obj 636 102 / 100;
#X floatatom 636 128 5 0 0 0 - - -;
#X msg 636 50 50;
#X msg 677 50 20;
#X floatatom 11 189 5 0 0 0 - - -;
#X obj 11 136 routeOSC /frequency /volume;
#X msg 717 50 0;
#X msg 416 50 216;
#X msg 496 51 864;
#X msg 456 51 432;
#X obj 416 422 netsend -u -b;
#X obj 11 60 netreceive -u -b 2222;
#X msg 580 309 connect 192.168.0.11 3333;
#X msg 581 340 connect 192.168.0.12 3333;
#X msg 581 370 connect 192.168.0.255 3333;
#X obj 416 157 prepend /frequency;
#X obj 636 156 prepend /volume;
#X obj 416 275 prepend send;
#X obj 118 253 line~;
#X obj 11 302 *~;
#X obj 118 225 pack 0 50;
#X msg 579 253 connect 192.168.0.10 3333;
#X connect 1 0 23 0;
#X connect 2 0 37 0;
#X connect 4 0 38 0;
#X connect 10 0 8 0;
#X connect 11 0 28 0;
#X connect 12 0 35 0;
#X connect 13 0 33 0;
#X connect 15 0 39 0;
#X connect 17 0 18 0;
#X connect 18 0 19 0;
#X connect 19 0 34 0;
#X connect 20 0 17 0;
#X connect 21 0 17 0;
#X connect 22 0 2 0;
#X connect 23 0 22 0;
#X connect 23 1 4 0;
#X connect 24 0 17 0;
#X connect 25 0 13 0;
#X connect 26 0 13 0;
#X connect 27 0 13 0;
#X connect 28 0 14 0;
#X connect 29 0 1 0;
#X connect 30 0 28 0;
#X connect 31 0 28 0;
#X connect 32 0 28 0;
#X connect 33 0 12 0;
#X connect 34 0 12 0;
#X connect 35 0 28 0;
#X connect 36 0 37 1;
#X connect 37 0 3 0;
#X connect 37 0 3 1;
#X connect 38 0 36 0;
#X connect 39 0 28 0;
